<svg viewBox="0 0 330 200" xmlns="http://www.w3.org/2000/svg"><g><g><g><g><g><line x1="82.734375" y1="177" x2="77.734375" y2="177" style="visibility: inherit;" fill="rgb(0, 0, 0)" stroke="rgb(204, 204, 204)" stroke-width="1px"></line><line x1="82.734375" y1="162.25" x2="77.734375" y2="162.25" style="visibility: inherit;" fill="rgb(0, 0, 0)" stroke="rgb(204, 204, 204)" stroke-width="1px"></line><line x1="82.734375" y1="147.5" x2="77.734375" y2="147.5" style="visibility: inherit;" fill="rgb(0, 0, 0)" stroke="rgb(204, 204, 204)" stroke-width="1px"></line><line x1="82.734375" y1="132.75" x2="77.734375" y2="132.75" style="visibility: inherit;" fill="rgb(0, 0, 0)" stroke="rgb(204, 204, 204)" stroke-width="1px"></line><line x1="82.734375" y1="118.00000000000001" x2="77.734375" y2="118.00000000000001" style="visibility: inherit;" fill="rgb(0, 0, 0)" stroke="rgb(204, 204, 204)" stroke-width="1px"></line><line x1="82.734375" y1="103.24999999999999" x2="77.734375" y2="103.24999999999999" style="visibility: inherit;" fill="rgb(0, 0, 0)" stroke="rgb(204, 204, 204)" stroke-width="1px"></line><line x1="82.734375" y1="88.49999999999999" x2="77.734375" y2="88.49999999999999" style="visibility: inherit;" fill="rgb(0, 0, 0)" stroke="rgb(204, 204, 204)" stroke-width="1px"></line><line x1="82.734375" y1="73.74999999999997" x2="77.734375" y2="73.74999999999997" style="visibility: inherit;" fill="rgb(0, 0, 0)" stroke="rgb(204, 204, 204)" stroke-width="1px"></line><line x1="82.734375" y1="59.00000000000001" x2="77.734375" y2="59.00000000000001" style="visibility: inherit;" fill="rgb(0, 0, 0)" stroke="rgb(204, 204, 204)" stroke-width="1px"></line><line x1="82.734375" y1="44.25" x2="77.734375" y2="44.25" style="visibility: inherit;" fill="rgb(0, 0, 0)" stroke="rgb(204, 204, 204)" stroke-width="1px"></line><line x1="82.734375" y1="29.499999999999993" x2="77.734375" y2="29.499999999999993" style="visibility: inherit;" fill="rgb(0, 0, 0)" stroke="rgb(204, 204, 204)" stroke-width="1px"></line><line x1="82.734375" y1="14.749999999999968" x2="77.734375" y2="14.749999999999968" style="visibility: inherit;" fill="rgb(0, 0, 0)" stroke="rgb(204, 204, 204)" stroke-width="1px"></line><line x1="82.734375" y1="0" x2="77.734375" y2="0" style="visibility: inherit;" fill="rgb(0, 0, 0)" stroke="rgb(204, 204, 204)" stroke-width="1px"></line></g><g transform="translate(72.734375, 0)"><text x="0" y="177" dx="0em" dy="0.3em" style="text-anchor: end; visibility: hidden; font-family: Roboto, sans-serif; font-size: 12px; font-weight: 200;" fill="rgb(33, 33, 33)" stroke="none" stroke-width="1px">4.5e-4</text><text x="0" y="162.25" dx="0em" dy="0.3em" style="text-anchor: end; visibility: inherit; font-family: Roboto, sans-serif; font-size: 12px; font-weight: 200;" fill="rgb(33, 33, 33)" stroke="none" stroke-width="1px">5e-4</text><text x="0" y="147.5" dx="0em" dy="0.3em" style="text-anchor: end; visibility: hidden; font-family: Roboto, sans-serif; font-size: 12px; font-weight: 200;" fill="rgb(33, 33, 33)" stroke="none" stroke-width="1px">5.5e-4</text><text x="0" y="132.75" dx="0em" dy="0.3em" style="text-anchor: end; visibility: inherit; font-family: Roboto, sans-serif; font-size: 12px; font-weight: 200;" fill="rgb(33, 33, 33)" stroke="none" stroke-width="1px">6e-4</text><text x="0" y="118.00000000000001" dx="0em" dy="0.3em" style="text-anchor: end; visibility: hidden; font-family: Roboto, sans-serif; font-size: 12px; font-weight: 200;" fill="rgb(33, 33, 33)" stroke="none" stroke-width="1px">6.5e-4</text><text x="0" y="103.24999999999999" dx="0em" dy="0.3em" style="text-anchor: end; visibility: inherit; font-family: Roboto, sans-serif; font-size: 12px; font-weight: 200;" fill="rgb(33, 33, 33)" stroke="none" stroke-width="1px">7e-4</text><text x="0" y="88.49999999999999" dx="0em" dy="0.3em" style="text-anchor: end; visibility: hidden; font-family: Roboto, sans-serif; font-size: 12px; font-weight: 200;" fill="rgb(33, 33, 33)" stroke="none" stroke-width="1px">7.5e-4</text><text x="0" y="73.74999999999997" dx="0em" dy="0.3em" style="text-anchor: end; visibility: inherit; font-family: Roboto, sans-serif; font-size: 12px; font-weight: 200;" fill="rgb(33, 33, 33)" stroke="none" stroke-width="1px">8e-4</text><text x="0" y="59.00000000000001" dx="0em" dy="0.3em" style="text-anchor: end; visibility: hidden; font-family: Roboto, sans-serif; font-size: 12px; font-weight: 200;" fill="rgb(33, 33, 33)" stroke="none" stroke-width="1px">8.5e-4</text><text x="0" y="44.25" dx="0em" dy="0.3em" style="text-anchor: end; visibility: inherit; font-family: Roboto, sans-serif; font-size: 12px; font-weight: 200;" fill="rgb(33, 33, 33)" stroke="none" stroke-width="1px">9e-4</text><text x="0" y="29.499999999999993" dx="0em" dy="0.3em" style="text-anchor: end; visibility: hidden; font-family: Roboto, sans-serif; font-size: 12px; font-weight: 200;" fill="rgb(33, 33, 33)" stroke="none" stroke-width="1px">9.5e-4</text><text x="0" y="14.749999999999968" dx="0em" dy="0.3em" style="text-anchor: end; visibility: inherit; font-family: Roboto, sans-serif; font-size: 12px; font-weight: 200;" fill="rgb(33, 33, 33)" stroke="none" stroke-width="1px">1e-3</text><text x="0" y="0" dx="0em" dy="0.3em" style="text-anchor: end; visibility: hidden; font-family: Roboto, sans-serif; font-size: 12px; font-weight: 200;" fill="rgb(33, 33, 33)" stroke="none" stroke-width="1px">1.05e-3</text></g><line x1="82.734375" y1="0" x2="82.734375" y2="177" fill="rgb(0, 0, 0)" stroke="rgb(204, 204, 204)" stroke-width="1px"></line></g></g><g transform="translate(82, 0)" clip-path="url(#clip_0)"><clipPath id="clip_0"><rect width="247" height="177"></rect></clipPath><g><g><g><line x1="0" y1="0" x2="0" y2="177" fill="rgb(0, 0, 0)" stroke="rgb(66, 66, 66)" stroke-width="1px" opacity="0.25"></line><line x1="19.020432692307693" y1="0" x2="19.020432692307693" y2="177" fill="rgb(0, 0, 0)" stroke="rgb(66, 66, 66)" stroke-width="1px" opacity="0.25"></line><line x1="38.04086538461539" y1="0" x2="38.04086538461539" y2="177" fill="rgb(0, 0, 0)" stroke="rgb(66, 66, 66)" stroke-width="1px" opacity="0.25"></line><line x1="57.06129807692308" y1="0" x2="57.06129807692308" y2="177" fill="rgb(0, 0, 0)" stroke="rgb(66, 66, 66)" stroke-width="1px" opacity="0.25"></line><line x1="76.08173076923077" y1="0" x2="76.08173076923077" y2="177" fill="rgb(0, 0, 0)" stroke="rgb(66, 66, 66)" stroke-width="1px" opacity="0.25"></line><line x1="95.10216346153847" y1="0" x2="95.10216346153847" y2="177" fill="rgb(0, 0, 0)" stroke="rgb(66, 66, 66)" stroke-width="1px" opacity="0.25"></line><line x1="114.12259615384616" y1="0" x2="114.12259615384616" y2="177" fill="rgb(0, 0, 0)" stroke="rgb(66, 66, 66)" stroke-width="1px" opacity="0.25"></line><line x1="133.14302884615384" y1="0" x2="133.14302884615384" y2="177" fill="rgb(0, 0, 0)" stroke="rgb(66, 66, 66)" stroke-width="1px" opacity="0.25"></line><line x1="152.16346153846155" y1="0" x2="152.16346153846155" y2="177" fill="rgb(0, 0, 0)" stroke="rgb(66, 66, 66)" stroke-width="1px" opacity="0.25"></line><line x1="171.18389423076923" y1="0" x2="171.18389423076923" y2="177" fill="rgb(0, 0, 0)" stroke="rgb(66, 66, 66)" stroke-width="1px" opacity="0.25"></line><line x1="190.20432692307693" y1="0" x2="190.20432692307693" y2="177" fill="rgb(0, 0, 0)" stroke="rgb(66, 66, 66)" stroke-width="1px" opacity="0.25"></line><line x1="209.2247596153846" y1="0" x2="209.2247596153846" y2="177" fill="rgb(0, 0, 0)" stroke="rgb(66, 66, 66)" stroke-width="1px" opacity="0.25"></line><line x1="228.24519230769232" y1="0" x2="228.24519230769232" y2="177" fill="rgb(0, 0, 0)" stroke="rgb(66, 66, 66)" stroke-width="1px" opacity="0.25"></line><line x1="247.265625" y1="0" x2="247.265625" y2="177" fill="rgb(0, 0, 0)" stroke="rgb(66, 66, 66)" stroke-width="1px" opacity="0.25"></line></g><g><line x1="0" y1="177" x2="247.265625" y2="177" fill="rgb(0, 0, 0)" stroke="rgb(66, 66, 66)" stroke-width="1px" opacity="0.25"></line><line x1="0" y1="162.25" x2="247.265625" y2="162.25" fill="rgb(0, 0, 0)" stroke="rgb(66, 66, 66)" stroke-width="1px" opacity="0.25"></line><line x1="0" y1="147.5" x2="247.265625" y2="147.5" fill="rgb(0, 0, 0)" stroke="rgb(66, 66, 66)" stroke-width="1px" opacity="0.25"></line><line x1="0" y1="132.75" x2="247.265625" y2="132.75" fill="rgb(0, 0, 0)" stroke="rgb(66, 66, 66)" stroke-width="1px" opacity="0.25"></line><line x1="0" y1="118.00000000000001" x2="247.265625" y2="118.00000000000001" fill="rgb(0, 0, 0)" stroke="rgb(66, 66, 66)" stroke-width="1px" opacity="0.25"></line><line x1="0" y1="103.24999999999999" x2="247.265625" y2="103.24999999999999" fill="rgb(0, 0, 0)" stroke="rgb(66, 66, 66)" stroke-width="1px" opacity="0.25"></line><line x1="0" y1="88.49999999999999" x2="247.265625" y2="88.49999999999999" fill="rgb(0, 0, 0)" stroke="rgb(66, 66, 66)" stroke-width="1px" opacity="0.25"></line><line x1="0" y1="73.74999999999997" x2="247.265625" y2="73.74999999999997" fill="rgb(0, 0, 0)" stroke="rgb(66, 66, 66)" stroke-width="1px" opacity="0.25"></line><line x1="0" y1="59.00000000000001" x2="247.265625" y2="59.00000000000001" fill="rgb(0, 0, 0)" stroke="rgb(66, 66, 66)" stroke-width="1px" opacity="0.25"></line><line x1="0" y1="44.25" x2="247.265625" y2="44.25" fill="rgb(0, 0, 0)" stroke="rgb(66, 66, 66)" stroke-width="1px" opacity="0.25"></line><line x1="0" y1="29.499999999999993" x2="247.265625" y2="29.499999999999993" fill="rgb(0, 0, 0)" stroke="rgb(66, 66, 66)" stroke-width="1px" opacity="0.25"></line><line x1="0" y1="14.749999999999968" x2="247.265625" y2="14.749999999999968" fill="rgb(0, 0, 0)" stroke="rgb(66, 66, 66)" stroke-width="1px" opacity="0.25"></line><line x1="0" y1="0" x2="247.265625" y2="0" fill="rgb(0, 0, 0)" stroke="rgb(66, 66, 66)" stroke-width="1px" opacity="0.25"></line></g></g></g><g><g><line x1="0" y1="309.75" x2="247.265625" y2="309.75" fill="rgb(0, 0, 0)" stroke="rgb(153, 153, 153)" stroke-width="1.5px"></line></g></g><g><g><line x1="19.020432692307693" y1="0" x2="19.020432692307693" y2="177" fill="rgb(0, 0, 0)" stroke="rgb(153, 153, 153)" stroke-width="1.5px"></line></g></g><g><g><g><g><g><path stroke="rgb(51, 187, 238)" stroke-width="2px" d="M20.922475961538463,14.749985988251852L22.824519230769234,14.749985988251852L24.7265625,14.749985988251852L26.62860576923077,14.749985988251852L28.53064903846154,14.749985988251852L30.43269230769231,14.749985988251852L32.33473557692308,14.749985988251852L34.23677884615385,14.749985988251852L36.13882211538462,14.749985988251852L38.04086538461539,14.749985988251852L39.94290865384615,14.749985988251852L41.84495192307693,14.749985988251852L43.74699519230769,14.749985988251852L45.64903846153847,14.749985988251852L47.55108173076923,14.749985988251852L49.453125,14.749985988251852L51.355168269230774,14.749985988251852L53.25721153846154,14.749985988251852L55.159254807692314,14.749985988251852L57.06129807692308,14.749985988251852L58.96334134615385,14.749985988251852L60.86538461538462,14.749985988251852L62.76742788461538,14.749985988251852L64.66947115384616,14.749985988251852L66.57151442307692,14.749985988251852L68.4735576923077,14.749985988251852L70.37560096153845,14.749985988251852L72.27764423076924,14.749985988251852L74.1796875,14.749985988251852L76.08173076923077,14.749985988251852L77.98377403846153,14.749985988251852L79.8858173076923,14.749985988251852L81.78786057692308,14.749985988251852L83.68990384615385,14.749985988251852L85.59194711538461,14.749985988251852L87.49399038461539,14.749985988251852L89.39603365384615,14.749985988251852L91.29807692307693,14.749985988251852L93.2001201923077,14.749985988251852L95.10216346153847,14.749985988251852L97.00420673076923,14.749985988251852L98.90625,14.749985988251852L100.80829326923077,14.749985988251852L102.71033653846155,14.749985988251852L104.6123798076923,14.749985988251852L106.51442307692308,14.749985988251852L108.41646634615384,14.749985988251852L110.31850961538463,14.749985988251852L112.22055288461539,14.749985988251852L114.12259615384616,14.749985988251852L116.02463942307692,14.749985988251852L117.9266826923077,14.749985988251852L119.82872596153847,14.749985988251852L121.73076923076924,14.749985988251852L123.6328125,14.749985988251852L125.53485576923076,14.749985988251852L127.43689903846152,14.749985988251852L129.33894230769232,14.749985988251852L131.24098557692307,14.749985988251852L133.14302884615384,14.749985988251852L135.0450721153846,14.749985988251852L136.9471153846154,14.749985988251852L138.84915865384616,14.749985988251852L140.7512019230769,14.749985988251852L142.65324519230768,14.749985988251852L144.55528846153848,14.749985988251852L146.45733173076923,14.749985988251852L148.359375,14.749985988251852L150.26141826923075,14.749985988251852L152.16346153846155,14.749985988251852L154.06550480769232,14.749985988251852L155.96754807692307,14.749985988251852L157.86959134615384,14.749985988251852L159.7716346153846,14.749985988251852L161.6736778846154,14.749985988251852L163.57572115384616,14.749985988251852L165.4777644230769,14.749985988251852L167.3798076923077,14.749985988251852L169.28185096153845,14.749985988251852L171.18389423076923,14.749985988251852L173.0859375,14.749985988251852L174.98798076923077,14.749985988251852L176.89002403846155,14.749985988251852L178.7920673076923,14.749985988251852L180.69411057692307,14.749985988251852L182.59615384615387,14.749985988251852L184.4981971153846,14.749985988251852L186.4002403846154,14.749985988251852L188.30228365384613,14.749985988251852L190.20432692307693,14.749985988251852L192.1063701923077,44.25000456068664L194.00841346153845,44.25000456068664L195.91045673076923,44.25000456068664L197.8125,44.25000456068664L199.71454326923077,44.25000456068664L201.61658653846155,44.25000456068664L203.5186298076923,44.25000456068664L205.4206730769231,44.25000456068664L207.32271634615384,44.25000456068664L209.2247596153846,44.25000456068664L211.1268028846154,44.25000456068664L213.02884615384616,44.25000456068664L214.93088942307693,44.25000456068664L216.83293269230768,44.25000456068664L218.73497596153845,44.25000456068664L220.63701923076925,44.25000456068664L222.5390625,44.25000456068664L224.44110576923077,44.25000456068664L226.34314903846152,44.25000456068664L228.24519230769232,44.25000456068664L230.1472355769231,44.25000456068664" style="fill: none;" fill="none"></path></g><g><path stroke="rgb(204, 51, 17)" stroke-width="2px" d="M20.922475961538463,14.749985988251852L22.824519230769234,14.749985988251852L24.7265625,14.749985988251852L26.62860576923077,14.749985988251852L28.53064903846154,14.749985988251852L30.43269230769231,14.749985988251852L32.33473557692308,14.749985988251852L34.23677884615385,14.749985988251852L36.13882211538462,14.749985988251852L38.04086538461539,14.749985988251852L39.94290865384615,14.749985988251852L41.84495192307693,14.749985988251852L43.74699519230769,14.749985988251852L45.64903846153847,14.749985988251852L47.55108173076923,14.749985988251852L49.453125,14.749985988251852L51.355168269230774,14.749985988251852L53.25721153846154,14.749985988251852L55.159254807692314,14.749985988251852L57.06129807692308,14.749985988251852L58.96334134615385,14.749985988251852L60.86538461538462,14.749985988251852L62.76742788461538,14.749985988251852L64.66947115384616,14.749985988251852L66.57151442307692,14.749985988251852L68.4735576923077,14.749985988251852L70.37560096153845,14.749985988251852L72.27764423076924,14.749985988251852L74.1796875,14.749985988251852L76.08173076923077,14.749985988251852L77.98377403846153,14.749985988251852L79.8858173076923,14.749985988251852L81.78786057692308,14.749985988251852L83.68990384615385,14.749985988251852L85.59194711538461,14.749985988251852L87.49399038461539,14.749985988251852L89.39603365384615,14.749985988251852L91.29807692307693,14.749985988251852L93.2001201923077,14.749985988251852L95.10216346153847,14.749985988251852L97.00420673076923,14.749985988251852L98.90625,14.749985988251852L100.80829326923077,14.749985988251852L102.71033653846155,14.749985988251852L104.6123798076923,14.749985988251852L106.51442307692308,14.749985988251852L108.41646634615384,14.749985988251852L110.31850961538463,14.749985988251852L112.22055288461539,14.749985988251852L114.12259615384616,14.749985988251852L116.02463942307692,14.749985988251852L117.9266826923077,14.749985988251852L119.82872596153847,14.749985988251852L121.73076923076924,14.749985988251852L123.6328125,14.749985988251852L125.53485576923076,14.749985988251852L127.43689903846152,44.25000456068664L129.33894230769232,44.25000456068664L131.24098557692307,44.25000456068664L133.14302884615384,44.25000456068664L135.0450721153846,44.25000456068664L136.9471153846154,44.25000456068664L138.84915865384616,44.25000456068664L140.7512019230769,44.25000456068664L142.65324519230768,44.25000456068664L144.55528846153848,44.25000456068664L146.45733173076923,44.25000456068664L148.359375,44.25000456068664L150.26141826923075,44.25000456068664L152.16346153846155,44.25000456068664L154.06550480769232,44.25000456068664L155.96754807692307,44.25000456068664L157.86959134615384,70.80000067036599L159.7716346153846,70.80000067036599L161.6736778846154,70.80000067036599L163.57572115384616,70.80000067036599L165.4777644230769,70.80000067036599L167.3798076923077,94.69499373482539L169.28185096153845,94.69499373482539L171.18389423076923,94.69499373482539L173.0859375,94.69499373482539L174.98798076923077,116.20050294697283L176.89002403846155,116.20050294697283L178.7920673076923,116.20050294697283L180.69411057692307,116.20050294697283L182.59615384615387,135.55544921802357L184.4981971153846,135.55544921802357L186.4002403846154,135.55544921802357L188.30228365384613,135.55544921802357L190.20432692307693,135.55544921802357L192.1063701923077,135.55544921802357L194.00841346153845,135.55544921802357L195.91045673076923,135.55544921802357L197.8125,135.55544921802357L199.71454326923077,135.55544921802357L201.61658653846155,135.55544921802357L203.5186298076923,135.55544921802357L205.4206730769231,135.55544921802357L207.32271634615384,135.55544921802357L209.2247596153846,135.55544921802357L211.1268028846154,135.55544921802357L213.02884615384616,152.97490257909521L214.93088942307693,152.97490257909521L216.83293269230768,152.97490257909521L218.73497596153845,152.97490257909521L220.63701923076925,152.97490257909521L222.5390625,168.65241747256368L224.44110576923077,168.65241747256368L226.34314903846152,168.65241747256368L228.24519230769232,168.65241747256368L230.1472355769231,182.76217057392932" style="fill: none;" fill="none"></path></g><g><path stroke="rgb(0, 119, 187)" stroke-width="2px" d="M20.922475961538463,14.749985988251852L22.824519230769234,14.749985988251852L24.7265625,14.749985988251852L26.62860576923077,14.749985988251852L28.53064903846154,14.749985988251852L30.43269230769231,14.749985988251852L32.33473557692308,14.749985988251852L34.23677884615385,14.749985988251852L36.13882211538462,14.749985988251852L38.04086538461539,14.749985988251852L39.94290865384615,14.749985988251852L41.84495192307693,14.749985988251852L43.74699519230769,14.749985988251852L45.64903846153847,14.749985988251852L47.55108173076923,14.749985988251852L49.453125,14.749985988251852L51.355168269230774,14.749985988251852L53.25721153846154,14.749985988251852L55.159254807692314,14.749985988251852L57.06129807692308,14.749985988251852L58.96334134615385,14.749985988251852L60.86538461538462,14.749985988251852L62.76742788461538,14.749985988251852L64.66947115384616,14.749985988251852L66.57151442307692,14.749985988251852L68.4735576923077,14.749985988251852L70.37560096153845,14.749985988251852L72.27764423076924,14.749985988251852L74.1796875,14.749985988251852L76.08173076923077,14.749985988251852L77.98377403846153,14.749985988251852L79.8858173076923,14.749985988251852L81.78786057692308,14.749985988251852L83.68990384615385,14.749985988251852L85.59194711538461,14.749985988251852L87.49399038461539,14.749985988251852L89.39603365384615,14.749985988251852L91.29807692307693,14.749985988251852L93.2001201923077,14.749985988251852L95.10216346153847,14.749985988251852L97.00420673076923,44.25000456068664L98.90625,44.25000456068664L100.80829326923077,44.25000456068664L102.71033653846155,44.25000456068664L104.6123798076923,44.25000456068664L106.51442307692308,44.25000456068664L108.41646634615384,44.25000456068664L110.31850961538463,44.25000456068664L112.22055288461539,44.25000456068664L114.12259615384616,44.25000456068664L116.02463942307692,44.25000456068664L117.9266826923077,44.25000456068664L119.82872596153847,44.25000456068664L121.73076923076924,44.25000456068664L123.6328125,44.25000456068664L125.53485576923076,44.25000456068664L127.43689903846152,44.25000456068664L129.33894230769232,44.25000456068664L131.24098557692307,44.25000456068664L133.14302884615384,44.25000456068664L135.0450721153846,44.25000456068664L136.9471153846154,44.25000456068664L138.84915865384616,44.25000456068664L140.7512019230769,70.80000067036599L142.65324519230768,70.80000067036599L144.55528846153848,70.80000067036599L146.45733173076923,70.80000067036599L148.359375,70.80000067036599L150.26141826923075,70.80000067036599L152.16346153846155,70.80000067036599L154.06550480769232,70.80000067036599L155.96754807692307,70.80000067036599L157.86959134615384,70.80000067036599L159.7716346153846,70.80000067036599L161.6736778846154,70.80000067036599L163.57572115384616,70.80000067036599L165.4777644230769,70.80000067036599L167.3798076923077,70.80000067036599L169.28185096153845,70.80000067036599L171.18389423076923,70.80000067036599L173.0859375,70.80000067036599L174.98798076923077,70.80000067036599L176.89002403846155,70.80000067036599L178.7920673076923,70.80000067036599L180.69411057692307,70.80000067036599L182.59615384615387,70.80000067036599L184.4981971153846,70.80000067036599L186.4002403846154,70.80000067036599L188.30228365384613,94.69499373482539L190.20432692307693,94.69499373482539L192.1063701923077,94.69499373482539L194.00841346153845,94.69499373482539L195.91045673076923,116.20050294697283L197.8125,116.20050294697283L199.71454326923077,116.20050294697283L201.61658653846155,116.20050294697283L203.5186298076923,135.55544921802357L205.4206730769231,135.55544921802357L207.32271634615384,135.55544921802357L209.2247596153846,135.55544921802357L211.1268028846154,152.97490257909521L213.02884615384616,152.97490257909521L214.93088942307693,152.97490257909521L216.83293269230768,152.97490257909521L218.73497596153845,152.97490257909521L220.63701923076925,152.97490257909521L222.5390625,168.65241747256368L224.44110576923077,168.65241747256368L226.34314903846152,168.65241747256368L228.24519230769232,168.65241747256368L230.1472355769231,168.65241747256368" style="fill: none;" fill="none"></path></g><g><path stroke="rgb(255, 112, 67)" stroke-width="2px" d="M20.922475961538463,14.749985988251852L22.824519230769234,14.749985988251852L24.7265625,14.749985988251852L26.62860576923077,14.749985988251852L28.53064903846154,14.749985988251852L30.43269230769231,14.749985988251852L32.33473557692308,14.749985988251852L34.23677884615385,14.749985988251852L36.13882211538462,14.749985988251852L38.04086538461539,14.749985988251852L39.94290865384615,14.749985988251852L41.84495192307693,14.749985988251852L43.74699519230769,14.749985988251852L45.64903846153847,14.749985988251852L47.55108173076923,14.749985988251852L49.453125,14.749985988251852L51.355168269230774,14.749985988251852L53.25721153846154,14.749985988251852L55.159254807692314,14.749985988251852L57.06129807692308,14.749985988251852L58.96334134615385,14.749985988251852L60.86538461538462,14.749985988251852L62.76742788461538,14.749985988251852L64.66947115384616,14.749985988251852L66.57151442307692,14.749985988251852L68.4735576923077,14.749985988251852L70.37560096153845,14.749985988251852L72.27764423076924,14.749985988251852L74.1796875,14.749985988251852L76.08173076923077,14.749985988251852L77.98377403846153,14.749985988251852L79.8858173076923,14.749985988251852L81.78786057692308,14.749985988251852L83.68990384615385,14.749985988251852L85.59194711538461,14.749985988251852L87.49399038461539,14.749985988251852L89.39603365384615,14.749985988251852L91.29807692307693,14.749985988251852L93.2001201923077,14.749985988251852L95.10216346153847,14.749985988251852L97.00420673076923,14.749985988251852L98.90625,14.749985988251852L100.80829326923077,14.749985988251852L102.71033653846155,14.749985988251852L104.6123798076923,14.749985988251852L106.51442307692308,14.749985988251852L108.41646634615384,14.749985988251852L110.31850961538463,14.749985988251852L112.22055288461539,14.749985988251852L114.12259615384616,44.25000456068664L116.02463942307692,44.25000456068664L117.9266826923077,44.25000456068664L119.82872596153847,44.25000456068664L121.73076923076924,44.25000456068664L123.6328125,44.25000456068664L125.53485576923076,44.25000456068664L127.43689903846152,44.25000456068664L129.33894230769232,44.25000456068664L131.24098557692307,44.25000456068664L133.14302884615384,70.80000067036599L135.0450721153846,70.80000067036599L136.9471153846154,70.80000067036599L138.84915865384616,70.80000067036599L140.7512019230769,70.80000067036599L142.65324519230768,70.80000067036599L144.55528846153848,70.80000067036599L146.45733173076923,70.80000067036599L148.359375,70.80000067036599L150.26141826923075,94.69499373482539L152.16346153846155,94.69499373482539L154.06550480769232,94.69499373482539L155.96754807692307,94.69499373482539L157.86959134615384,94.69499373482539L159.7716346153846,94.69499373482539L161.6736778846154,94.69499373482539L163.57572115384616,94.69499373482539L165.4777644230769,116.20050294697283L167.3798076923077,116.20050294697283L169.28185096153845,116.20050294697283L171.18389423076923,116.20050294697283L173.0859375,116.20050294697283L174.98798076923077,116.20050294697283L176.89002403846155,135.55544921802357L178.7920673076923,135.55544921802357L180.69411057692307,135.55544921802357L182.59615384615387,135.55544921802357L184.4981971153846,152.97490257909521L186.4002403846154,152.97490257909521L188.30228365384613,152.97490257909521L190.20432692307693,152.97490257909521L192.1063701923077,168.65241747256368L194.00841346153845,168.65241747256368L195.91045673076923,168.65241747256368L197.8125,168.65241747256368L199.71454326923077,168.65241747256368L201.61658653846155,168.65241747256368L203.5186298076923,168.65241747256368L205.4206730769231,168.65241747256368L207.32271634615384,168.65241747256368L209.2247596153846,168.65241747256368L211.1268028846154,168.65241747256368L213.02884615384616,168.65241747256368L214.93088942307693,168.65241747256368L216.83293269230768,168.65241747256368L218.73497596153845,168.65241747256368L220.63701923076925,168.65241747256368L222.5390625,168.65241747256368L224.44110576923077,168.65241747256368L226.34314903846152,168.65241747256368L228.24519230769232,168.65241747256368L230.1472355769231,182.76217057392932" style="fill: none;" fill="none"></path></g></g></g></g></g></g><g transform="translate(82, 177)" clip-path="url(#clip_1)"><clipPath id="clip_1"><rect width="247" height="23"></rect></clipPath><g><g><line x1="0" y1="0" x2="0" y2="5" style="visibility: inherit;" fill="rgb(0, 0, 0)" stroke="rgb(204, 204, 204)" stroke-width="1px"></line><line x1="19.020432692307693" y1="0" x2="19.020432692307693" y2="5" style="visibility: inherit;" fill="rgb(0, 0, 0)" stroke="rgb(204, 204, 204)" stroke-width="1px"></line><line x1="38.04086538461539" y1="0" x2="38.04086538461539" y2="5" style="visibility: inherit;" fill="rgb(0, 0, 0)" stroke="rgb(204, 204, 204)" stroke-width="1px"></line><line x1="57.06129807692308" y1="0" x2="57.06129807692308" y2="5" style="visibility: inherit;" fill="rgb(0, 0, 0)" stroke="rgb(204, 204, 204)" stroke-width="1px"></line><line x1="76.08173076923077" y1="0" x2="76.08173076923077" y2="5" style="visibility: inherit;" fill="rgb(0, 0, 0)" stroke="rgb(204, 204, 204)" stroke-width="1px"></line><line x1="95.10216346153847" y1="0" x2="95.10216346153847" y2="5" style="visibility: inherit;" fill="rgb(0, 0, 0)" stroke="rgb(204, 204, 204)" stroke-width="1px"></line><line x1="114.12259615384616" y1="0" x2="114.12259615384616" y2="5" style="visibility: inherit;" fill="rgb(0, 0, 0)" stroke="rgb(204, 204, 204)" stroke-width="1px"></line><line x1="133.14302884615384" y1="0" x2="133.14302884615384" y2="5" style="visibility: inherit;" fill="rgb(0, 0, 0)" stroke="rgb(204, 204, 204)" stroke-width="1px"></line><line x1="152.16346153846155" y1="0" x2="152.16346153846155" y2="5" style="visibility: inherit;" fill="rgb(0, 0, 0)" stroke="rgb(204, 204, 204)" stroke-width="1px"></line><line x1="171.18389423076923" y1="0" x2="171.18389423076923" y2="5" style="visibility: inherit;" fill="rgb(0, 0, 0)" stroke="rgb(204, 204, 204)" stroke-width="1px"></line><line x1="190.20432692307693" y1="0" x2="190.20432692307693" y2="5" style="visibility: inherit;" fill="rgb(0, 0, 0)" stroke="rgb(204, 204, 204)" stroke-width="1px"></line><line x1="209.2247596153846" y1="0" x2="209.2247596153846" y2="5" style="visibility: inherit;" fill="rgb(0, 0, 0)" stroke="rgb(204, 204, 204)" stroke-width="1px"></line><line x1="228.24519230769232" y1="0" x2="228.24519230769232" y2="5" style="visibility: inherit;" fill="rgb(0, 0, 0)" stroke="rgb(204, 204, 204)" stroke-width="1px"></line><line x1="247.265625" y1="0" x2="247.265625" y2="5" style="visibility: inherit;" fill="rgb(0, 0, 0)" stroke="rgb(204, 204, 204)" stroke-width="1px"></line></g><g transform="translate(0, 8)"><text x="0" y="0" dx="0em" dy="0.95em" style="text-anchor: middle; visibility: hidden; font-family: Roboto, sans-serif; font-size: 12px; font-weight: 200;" fill="rgb(33, 33, 33)" stroke="none" stroke-width="1px">-2k</text><text x="19.020432692307693" y="0" dx="0em" dy="0.95em" style="text-anchor: middle; visibility: inherit; font-family: Roboto, sans-serif; font-size: 12px; font-weight: 200;" fill="rgb(33, 33, 33)" stroke="none" stroke-width="1px">0</text><text x="38.04086538461539" y="0" dx="0em" dy="0.95em" style="text-anchor: middle; visibility: hidden; font-family: Roboto, sans-serif; font-size: 12px; font-weight: 200;" fill="rgb(33, 33, 33)" stroke="none" stroke-width="1px">2k</text><text x="57.06129807692308" y="0" dx="0em" dy="0.95em" style="text-anchor: middle; visibility: inherit; font-family: Roboto, sans-serif; font-size: 12px; font-weight: 200;" fill="rgb(33, 33, 33)" stroke="none" stroke-width="1px">4k</text><text x="76.08173076923077" y="0" dx="0em" dy="0.95em" style="text-anchor: middle; visibility: hidden; font-family: Roboto, sans-serif; font-size: 12px; font-weight: 200;" fill="rgb(33, 33, 33)" stroke="none" stroke-width="1px">6k</text><text x="95.10216346153847" y="0" dx="0em" dy="0.95em" style="text-anchor: middle; visibility: inherit; font-family: Roboto, sans-serif; font-size: 12px; font-weight: 200;" fill="rgb(33, 33, 33)" stroke="none" stroke-width="1px">8k</text><text x="114.12259615384616" y="0" dx="0em" dy="0.95em" style="text-anchor: middle; visibility: hidden; font-family: Roboto, sans-serif; font-size: 12px; font-weight: 200;" fill="rgb(33, 33, 33)" stroke="none" stroke-width="1px">10k</text><text x="133.14302884615384" y="0" dx="0em" dy="0.95em" style="text-anchor: middle; visibility: inherit; font-family: Roboto, sans-serif; font-size: 12px; font-weight: 200;" fill="rgb(33, 33, 33)" stroke="none" stroke-width="1px">12k</text><text x="152.16346153846155" y="0" dx="0em" dy="0.95em" style="text-anchor: middle; visibility: hidden; font-family: Roboto, sans-serif; font-size: 12px; font-weight: 200;" fill="rgb(33, 33, 33)" stroke="none" stroke-width="1px">14k</text><text x="171.18389423076923" y="0" dx="0em" dy="0.95em" style="text-anchor: middle; visibility: inherit; font-family: Roboto, sans-serif; font-size: 12px; font-weight: 200;" fill="rgb(33, 33, 33)" stroke="none" stroke-width="1px">16k</text><text x="190.20432692307693" y="0" dx="0em" dy="0.95em" style="text-anchor: middle; visibility: hidden; font-family: Roboto, sans-serif; font-size: 12px; font-weight: 200;" fill="rgb(33, 33, 33)" stroke="none" stroke-width="1px">18k</text><text x="209.2247596153846" y="0" dx="0em" dy="0.95em" style="text-anchor: middle; visibility: inherit; font-family: Roboto, sans-serif; font-size: 12px; font-weight: 200;" fill="rgb(33, 33, 33)" stroke="none" stroke-width="1px">20k</text><text x="228.24519230769232" y="0" dx="0em" dy="0.95em" style="text-anchor: middle; visibility: hidden; font-family: Roboto, sans-serif; font-size: 12px; font-weight: 200;" fill="rgb(33, 33, 33)" stroke="none" stroke-width="1px">22k</text><text x="247.265625" y="0" dx="0em" dy="0.95em" style="text-anchor: middle; visibility: hidden; font-family: Roboto, sans-serif; font-size: 12px; font-weight: 200;" fill="rgb(33, 33, 33)" stroke="none" stroke-width="1px">24k</text></g><line x1="0" y1="0" x2="247.265625" y2="0" fill="rgb(0, 0, 0)" stroke="rgb(204, 204, 204)" stroke-width="1px"></line></g></g></g></g><!-- 图例 放在右上角 --> <g transform="translate(110,120)" font-family="Roboto, sans-serif" font-size="10"> <g transform="translate(8,5)"> <line x1="0" y1="0" x2="20" y2="0" stroke="rgb(255, 112, 67)" stroke-width="2" fill="none" /> <text x="26" y="3" fill="rgb(33,33,33)">baseline</text> </g> <g transform="translate(8,20)"> <line x1="0" y1="0" x2="20" y2="0" stroke="rgb(0, 119, 187)" stroke-width="2" fill="none" /> <text x="26" y="3" fill="rgb(33,33,33)">lightweigt-v1</text> </g> <g transform="translate(8,35)"> <line x1="0" y1="0" x2="20" y2="0" stroke="rgb(204, 51, 17)" stroke-width="2" fill="none" /> <text x="26" y="3" fill="rgb(33,33,33)">lightweigt-v2</text> </g> <g transform="translate(8,50)"> <line x1="0" y1="0" x2="20" y2="0" stroke="rgb(51, 187, 238)" stroke-width="2" fill="none" /> <text x="26" y="3" fill="rgb(33,33,33)">lightweigt-v3</text> </g> </g></svg>